<svg width="880" height="755" viewBox="0 0 880 755" fill="none" xmlns="http://www.w3.org/2000/svg">
<path d="M0 0H860C871.046 0 880 8.95431 880 20V735C880 746.046 871.046 755 860 755H0V0Z" fill="url(#paint0_linear)"/>
<path d="M155 128.699L152.956 127.398L154.257 125.354L153.699 125L152.399 127.044L150.355 125.743L150 126.3L152.044 127.601L150.743 129.645L151.301 130L152.601 127.956L154.645 129.256L155 128.699Z" fill="#4E4BFB"/>
<path d="M307 276.699L304.956 275.398L306.257 273.354L305.699 273L304.399 275.044L302.355 273.743L302 274.3L304.044 275.601L302.743 277.645L303.301 278L304.601 275.956L306.645 277.257L307 276.699Z" fill="#4E4BFB"/>
<path d="M245 354.699L242.956 353.398L244.257 351.354L243.699 351L242.399 353.044L240.355 351.743L240 352.3L242.044 353.601L240.743 355.645L241.301 356L242.601 353.956L244.645 355.257L245 354.699Z" fill="#4E4BFB"/>
<path d="M486 268.699L483.956 267.398L485.257 265.354L484.699 265L483.399 267.044L481.355 265.743L481 266.3L483.044 267.601L481.743 269.645L482.301 270L483.601 267.956L485.645 269.257L486 268.699Z" fill="#4E4BFB"/>
<path d="M203 170.178L200.138 168.358L201.959 165.496L201.179 165L199.358 167.861L196.497 166.04L196 166.821L198.862 168.641L197.041 171.503L197.821 172L199.642 169.138L202.503 170.959L203 170.178Z" fill="white"/>
<path d="M100 208C101.657 208 103 206.657 103 205C103 203.343 101.657 202 100 202C98.3431 202 97 203.343 97 205C97 206.657 98.3431 208 100 208Z" fill="#4E4BFB"/>
<path d="M187 98C188.657 98 190 96.6569 190 95C190 93.3431 188.657 92 187 92C185.343 92 184 93.3431 184 95C184 96.6569 185.343 98 187 98Z" fill="#4E4BFB"/>
<path d="M159 281C160.657 281 162 279.657 162 278C162 276.343 160.657 275 159 275C157.343 275 156 276.343 156 278C156 279.657 157.343 281 159 281Z" fill="#4E4BFB"/>
<path d="M157 217C158.105 217 159 216.105 159 215C159 213.895 158.105 213 157 213C155.895 213 155 213.895 155 215C155 216.105 155.895 217 157 217Z" fill="#4E4BFB"/>
<path d="M362 305C363.105 305 364 304.105 364 303C364 301.895 363.105 301 362 301C360.895 301 360 301.895 360 303C360 304.105 360.895 305 362 305Z" fill="#C0353C"/>
<path d="M181 34C182.105 34 183 33.1046 183 32C183 30.8954 182.105 30 181 30C179.895 30 179 30.8954 179 32C179 33.1046 179.895 34 181 34Z" fill="#C0353C"/>
<path d="M99 127C100.105 127 101 126.105 101 125C101 123.895 100.105 123 99 123C97.8954 123 97 123.895 97 125C97 126.105 97.8954 127 99 127Z" fill="#4E4BFB"/>
<path d="M124 60C125.105 60 126 59.1046 126 58C126 56.8954 125.105 56 124 56C122.895 56 122 56.8954 122 58C122 59.1046 122.895 60 124 60Z" fill="white"/>
<path d="M423 241C424.657 241 426 239.657 426 238C426 236.343 424.657 235 423 235C421.343 235 420 236.343 420 238C420 239.657 421.343 241 423 241Z" fill="#4E4BFB"/>
<path d="M224 252C225.657 252 227 250.657 227 249C227 247.343 225.657 246 224 246C222.343 246 221 247.343 221 249C221 250.657 222.343 252 224 252Z" fill="#4E4BFB"/>
<path d="M173 330C178.523 330 183 325.523 183 320C183 314.477 178.523 310 173 310C167.477 310 163 314.477 163 320C163 325.523 167.477 330 173 330Z" fill="#4E4BFB"/>
<path d="M294 214C295.657 214 297 212.657 297 211C297 209.343 295.657 208 294 208C292.343 208 291 209.343 291 211C291 212.657 292.343 214 294 214Z" fill="white"/>
<path d="M605 48.6995L602.956 47.3985L604.257 45.3545L603.699 45.0005L602.399 47.0445L600.355 45.7435L600 46.3005L602.044 47.6015L600.743 49.6455L601.301 50.0005L602.601 47.9565L604.645 49.2565L605 48.6995Z" fill="#4E4BFB"/>
<path d="M359 30.6995L356.956 29.3985L358.257 27.3545L357.699 27.0005L356.399 29.0445L354.355 27.7435L354 28.3005L356.044 29.6015L354.743 31.6455L355.301 32.0005L356.601 29.9565L358.645 31.2565L359 30.6995Z" fill="#4E4BFB"/>
<path d="M543 126.699L540.956 125.398L542.257 123.354L541.699 123L540.399 125.044L538.355 123.743L538 124.3L540.044 125.601L538.743 127.645L539.301 128L540.601 125.956L542.645 127.257L543 126.699Z" fill="#4E4BFB"/>
<path d="M372 89.6995L369.956 88.3985L371.257 86.3545L370.699 86.0005L369.399 88.0445L367.355 86.7435L367 87.3005L369.044 88.6015L367.743 90.6455L368.301 91.0005L369.601 88.9565L371.645 90.2565L372 89.6995Z" fill="#4E4BFB"/>
<path d="M784 40.6995L781.956 39.3985L783.257 37.3545L782.699 37.0005L781.399 39.0445L779.355 37.7435L779 38.3005L781.044 39.6015L779.743 41.6455L780.301 42.0005L781.601 39.9565L783.645 41.2565L784 40.6995Z" fill="#4E4BFB"/>
<path d="M457 53C458.657 53 460 51.6569 460 50C460 48.3431 458.657 47 457 47C455.343 47 454 48.3431 454 50C454 51.6569 455.343 53 457 53Z" fill="#4E4BFB"/>
<path d="M660 77C661.105 77 662 76.1046 662 75C662 73.8954 661.105 73 660 73C658.895 73 658 73.8954 658 75C658 76.1046 658.895 77 660 77Z" fill="#C0353C"/>
<path d="M721 13C722.657 13 724 11.6569 724 10C724 8.34315 722.657 7 721 7C719.343 7 718 8.34315 718 10C718 11.6569 719.343 13 721 13Z" fill="#4E4BFB"/>
<path d="M522 24C523.657 24 525 22.6569 525 21C525 19.3431 523.657 18 522 18C520.343 18 519 19.3431 519 21C519 22.6569 520.343 24 522 24Z" fill="#4E4BFB"/>
<path d="M471 102C476.523 102 481 97.5228 481 92C481 86.4772 476.523 82 471 82C465.477 82 461 86.4772 461 92C461 97.5228 465.477 102 471 102Z" fill="#4E4BFB"/>
<path d="M677 315.699L674.956 314.398L676.257 312.354L675.699 312L674.399 314.044L672.355 312.743L672 313.3L674.044 314.601L672.743 316.645L673.301 317L674.601 314.956L676.645 316.256L677 315.699Z" fill="#4E4BFB"/>
<path d="M829 463.699L826.956 462.398L828.257 460.354L827.699 460L826.399 462.044L824.355 460.743L824 461.3L826.044 462.601L824.743 464.645L825.301 465L826.601 462.956L828.645 464.256L829 463.699Z" fill="#4E4BFB"/>
<path d="M583 445.699L580.956 444.398L582.257 442.354L581.699 442L580.399 444.044L578.355 442.743L578 443.3L580.044 444.601L578.743 446.645L579.301 447L580.601 444.956L582.645 446.257L583 445.699Z" fill="#4E4BFB"/>
<path d="M767 541.699L764.956 540.398L766.257 538.354L765.699 538L764.399 540.044L762.355 538.743L762 539.3L764.044 540.601L762.743 542.645L763.301 543L764.601 540.956L766.645 542.256L767 541.699Z" fill="#4E4BFB"/>
<path d="M596 504.699L593.956 503.398L595.257 501.354L594.699 501L593.399 503.044L591.355 501.743L591 502.3L593.044 503.601L591.743 505.645L592.301 506L593.601 503.956L595.645 505.256L596 504.699Z" fill="#4E4BFB"/>
<path d="M554 334.699L551.956 333.398L553.257 331.354L552.699 331L551.399 333.044L549.355 331.743L549 332.3L551.044 333.601L549.743 335.645L550.301 336L551.601 333.956L553.645 335.256L554 334.699Z" fill="#4E4BFB"/>
<path d="M725 357.178L722.138 355.358L723.959 352.496L723.179 352L721.358 354.861L718.497 353.04L718 353.821L720.862 355.641L719.041 358.503L719.821 359L721.642 356.138L724.503 357.959L725 357.178Z" fill="white"/>
<path d="M622 395C623.657 395 625 393.657 625 392C625 390.343 623.657 389 622 389C620.343 389 619 390.343 619 392C619 393.657 620.343 395 622 395Z" fill="#4E4BFB"/>
<path d="M709 285C710.657 285 712 283.657 712 282C712 280.343 710.657 279 709 279C707.343 279 706 280.343 706 282C706 283.657 707.343 285 709 285Z" fill="#4E4BFB"/>
<path d="M681 468C682.657 468 684 466.657 684 465C684 463.343 682.657 462 681 462C679.343 462 678 463.343 678 465C678 466.657 679.343 468 681 468Z" fill="#4E4BFB"/>
<path d="M679 404C680.105 404 681 403.105 681 402C681 400.895 680.105 400 679 400C677.895 400 677 400.895 677 402C677 403.105 677.895 404 679 404Z" fill="#4E4BFB"/>
<path d="M578 383C579.105 383 580 382.105 580 381C580 379.895 579.105 379 578 379C576.895 379 576 379.895 576 381C576 382.105 576.895 383 578 383Z" fill="#C0353C"/>
<path d="M703 221C704.105 221 705 220.105 705 219C705 217.895 704.105 217 703 217C701.895 217 701 217.895 701 219C701 220.105 701.895 221 703 221Z" fill="#C0353C"/>
<path d="M621 314C622.105 314 623 313.105 623 312C623 310.895 622.105 310 621 310C619.895 310 619 310.895 619 312C619 313.105 619.895 314 621 314Z" fill="#4E4BFB"/>
<path d="M646 247C647.105 247 648 246.105 648 245C648 243.895 647.105 243 646 243C644.895 243 644 243.895 644 245C644 246.105 644.895 247 646 247Z" fill="white"/>
<path d="M746 439C747.657 439 749 437.657 749 436C749 434.343 747.657 433 746 433C744.343 433 743 434.343 743 436C743 437.657 744.343 439 746 439Z" fill="#4E4BFB"/>
<path d="M695 517C700.523 517 705 512.523 705 507C705 501.477 700.523 497 695 497C689.477 497 685 501.477 685 507C685 512.523 689.477 517 695 517Z" fill="#4E4BFB"/>
<path d="M816 401C817.657 401 819 399.657 819 398C819 396.343 817.657 395 816 395C814.343 395 813 396.343 813 398C813 399.657 814.343 401 816 401Z" fill="white"/>
<path d="M207 500.699L204.956 499.398L206.257 497.354L205.699 497L204.399 499.044L202.355 497.743L202 498.3L204.044 499.601L202.743 501.645L203.301 502L204.601 499.956L206.645 501.256L207 500.699Z" fill="#4E4BFB"/>
<path d="M359 648.699L356.956 647.398L358.257 645.354L357.699 645L356.399 647.044L354.355 645.743L354 646.3L356.044 647.601L354.743 649.645L355.301 650L356.601 647.956L358.645 649.256L359 648.699Z" fill="#4E4BFB"/>
<path d="M113 630.699L110.956 629.398L112.257 627.354L111.699 627L110.399 629.044L108.355 627.743L108 628.3L110.044 629.601L108.743 631.645L109.301 632L110.601 629.956L112.645 631.256L113 630.699Z" fill="#4E4BFB"/>
<path d="M538 640.699L535.956 639.398L537.257 637.354L536.699 637L535.399 639.044L533.355 637.743L533 638.3L535.044 639.601L533.743 641.645L534.301 642L535.601 639.956L537.645 641.256L538 640.699Z" fill="#4E4BFB"/>
<path d="M255 542.178L252.138 540.358L253.959 537.496L253.179 537L251.358 539.861L248.497 538.04L248 538.821L250.862 540.641L249.041 543.503L249.821 544L251.642 541.138L254.503 542.959L255 542.178Z" fill="white"/>
<path d="M152 580C153.657 580 155 578.657 155 577C155 575.343 153.657 574 152 574C150.343 574 149 575.343 149 577C149 578.657 150.343 580 152 580Z" fill="#4E4BFB"/>
<path d="M239 470C240.657 470 242 468.657 242 467C242 465.343 240.657 464 239 464C237.343 464 236 465.343 236 467C236 468.657 237.343 470 239 470Z" fill="#4E4BFB"/>
<path d="M211 653C212.657 653 214 651.657 214 650C214 648.343 212.657 647 211 647C209.343 647 208 648.343 208 650C208 651.657 209.343 653 211 653Z" fill="#4E4BFB"/>
<path d="M209 589C210.105 589 211 588.105 211 587C211 585.895 210.105 585 209 585C207.895 585 207 585.895 207 587C207 588.105 207.895 589 209 589Z" fill="#4E4BFB"/>
<path d="M108 568C109.105 568 110 567.105 110 566C110 564.895 109.105 564 108 564C106.895 564 106 564.895 106 566C106 567.105 106.895 568 108 568Z" fill="#C0353C"/>
<path d="M233 406C234.105 406 235 405.105 235 404C235 402.895 234.105 402 233 402C231.895 402 231 402.895 231 404C231 405.105 231.895 406 233 406Z" fill="#C0353C"/>
<path d="M151 499C152.105 499 153 498.105 153 497C153 495.895 152.105 495 151 495C149.895 495 149 495.895 149 497C149 498.105 149.895 499 151 499Z" fill="#4E4BFB"/>
<path d="M176 432C177.105 432 178 431.105 178 430C178 428.895 177.105 428 176 428C174.895 428 174 428.895 174 430C174 431.105 174.895 432 176 432Z" fill="white"/>
<path d="M276 624C277.657 624 279 622.657 279 621C279 619.343 277.657 618 276 618C274.343 618 273 619.343 273 621C273 622.657 274.343 624 276 624Z" fill="#4E4BFB"/>
<path d="M225 702C230.523 702 235 697.523 235 692C235 686.477 230.523 682 225 682C219.477 682 215 686.477 215 692C215 697.523 219.477 702 225 702Z" fill="#4E4BFB"/>
<path d="M346 586C347.657 586 349 584.657 349 583C349 581.343 347.657 580 346 580C344.343 580 343 581.343 343 583C343 584.657 344.343 586 346 586Z" fill="white"/>
<path d="M761 654.699L758.956 653.398L760.257 651.354L759.699 651L758.399 653.044L756.355 651.743L756 652.3L758.044 653.601L756.743 655.645L757.301 656L758.601 653.956L760.645 655.256L761 654.699Z" fill="#4E4BFB"/>
<path d="M638 673.699L635.956 672.398L637.257 670.354L636.699 670L635.399 672.044L633.355 670.743L633 671.3L635.044 672.601L633.743 674.645L634.301 675L635.601 672.956L637.645 674.256L638 673.699Z" fill="#4E4BFB"/>
<path d="M809 696.178L806.138 694.358L807.959 691.496L807.179 691L805.358 693.861L802.497 692.04L802 692.821L804.862 694.641L803.041 697.503L803.821 698L805.642 695.138L808.503 696.959L809 696.178Z" fill="white"/>
<path d="M706 734C707.657 734 709 732.657 709 731C709 729.343 707.657 728 706 728C704.343 728 703 729.343 703 731C703 732.657 704.343 734 706 734Z" fill="#4E4BFB"/>
<path d="M793 624C794.657 624 796 622.657 796 621C796 619.343 794.657 618 793 618C791.343 618 790 619.343 790 621C790 622.657 791.343 624 793 624Z" fill="#4E4BFB"/>
<path d="M763 743C764.105 743 765 742.105 765 741C765 739.895 764.105 739 763 739C761.895 739 761 739.895 761 741C761 742.105 761.895 743 763 743Z" fill="#4E4BFB"/>
<path d="M662 722C663.105 722 664 721.105 664 720C664 718.895 663.105 718 662 718C660.895 718 660 718.895 660 720C660 721.105 660.895 722 662 722Z" fill="#C0353C"/>
<path d="M787 560C788.105 560 789 559.105 789 558C789 556.895 788.105 556 787 556C785.895 556 785 556.895 785 558C785 559.105 785.895 560 787 560Z" fill="#C0353C"/>
<path d="M705 653C706.105 653 707 652.105 707 651C707 649.895 706.105 649 705 649C703.895 649 703 649.895 703 651C703 652.105 703.895 653 705 653Z" fill="#4E4BFB"/>
<path d="M730 586C731.105 586 732 585.105 732 584C732 582.895 731.105 582 730 582C728.895 582 728 582.895 728 584C728 585.105 728.895 586 730 586Z" fill="white"/>
<path d="M718.209 576.964H157.791C152.807 576.964 148.028 574.984 144.504 571.46C140.98 567.936 139 563.156 139 558.172C342.151 534.562 541.485 534.562 737 558.172C737 563.156 735.02 567.936 731.496 571.46C727.972 574.984 723.193 576.964 718.209 576.964Z" fill="#495057"/>
<path d="M737 559.277L139 558.172L208.306 441.556L208.638 441.004V183.996C208.637 180.877 209.252 177.788 210.445 174.906C211.639 172.024 213.389 169.405 215.595 167.199C217.8 164.993 220.419 163.244 223.301 162.05C226.183 160.856 229.272 160.242 232.392 160.242H640.292C643.411 160.242 646.501 160.856 649.383 162.05C652.265 163.244 654.883 164.993 657.089 167.199C659.295 169.405 661.045 172.024 662.239 174.906C663.432 177.788 664.046 180.877 664.046 183.996V442.772L737 559.277Z" fill="#343A40"/>
<path d="M231.851 176.822C229.799 176.825 227.833 177.641 226.382 179.091C224.932 180.542 224.116 182.508 224.113 184.56V418.896C224.116 420.948 224.932 422.914 226.382 424.365C227.833 425.815 229.799 426.631 231.851 426.634H644.15C646.202 426.631 648.168 425.815 649.619 424.365C651.069 422.914 651.885 420.948 651.888 418.896V184.56C651.885 182.508 651.069 180.542 649.619 179.091C648.168 177.641 646.202 176.825 644.15 176.822H231.851Z" fill="#E5D9F2"/>
<path d="M233.578 457.584C232.944 457.585 232.324 457.767 231.79 458.109C231.256 458.451 230.831 458.939 230.565 459.514L209.21 505.939C208.977 506.444 208.876 507 208.914 507.555C208.953 508.11 209.13 508.646 209.43 509.114C209.73 509.582 210.143 509.968 210.631 510.235C211.119 510.501 211.666 510.641 212.222 510.641H661.314C661.879 510.641 662.435 510.497 662.929 510.222C663.423 509.946 663.838 509.549 664.135 509.068C664.432 508.588 664.601 508.039 664.627 507.474C664.652 506.909 664.532 506.348 664.279 505.842L641.067 459.417C640.793 458.865 640.37 458.401 639.846 458.077C639.322 457.753 638.718 457.582 638.102 457.584H233.578Z" fill="#495057"/>
<path d="M436.341 172.954C439.088 172.954 441.315 170.727 441.315 167.979C441.315 165.232 439.088 163.005 436.341 163.005C433.594 163.005 431.367 165.232 431.367 167.979C431.367 170.727 433.594 172.954 436.341 172.954Z" fill="#495057"/>
<path d="M392.2 519.484C391.471 519.485 390.763 519.726 390.184 520.169C389.605 520.613 389.189 521.234 388.998 521.938L383.642 541.834C383.509 542.326 383.492 542.841 383.59 543.341C383.689 543.84 383.902 544.31 384.211 544.714C384.521 545.118 384.919 545.445 385.376 545.671C385.832 545.896 386.334 546.013 386.843 546.013H488.717C489.246 546.013 489.767 545.887 490.237 545.644C490.707 545.402 491.112 545.051 491.418 544.62C491.725 544.19 491.924 543.692 491.999 543.169C492.074 542.645 492.023 542.112 491.85 541.612L484.963 521.716C484.737 521.064 484.314 520.499 483.752 520.099C483.191 519.7 482.519 519.485 481.829 519.484H392.2Z" fill="#495057"/>
<path d="M664.045 437.135V441.556H208.305L208.648 441.004V437.135H664.045Z" fill="#495057"/>
<path d="M628.334 254.75C671.067 254.75 705.709 220.108 705.709 177.375C705.709 134.642 671.067 100 628.334 100C585.601 100 550.959 134.642 550.959 177.375C550.959 220.108 585.601 254.75 628.334 254.75Z" fill="#7371FC"/>
<path d="M660.39 211.089H596.279C595.107 211.087 593.983 210.621 593.154 209.792C592.325 208.963 591.859 207.839 591.857 206.667V167.98C591.859 166.807 592.325 165.683 593.154 164.854C593.983 164.026 595.107 163.559 596.279 163.558H660.39C661.562 163.559 662.686 164.026 663.515 164.854C664.344 165.683 664.81 166.807 664.811 167.98V206.667C664.81 207.839 664.344 208.963 663.515 209.792C662.686 210.621 661.562 211.087 660.39 211.089ZM596.279 167.98V206.667H660.393L660.39 167.98L596.279 167.98Z" fill="white"/>
<path d="M648.231 167.98H608.438V150.294C608.438 137.484 616.805 128.187 628.334 128.187C639.863 128.187 648.23 137.484 648.23 150.294L648.231 167.98ZM612.859 163.558H643.809V150.294C643.809 139.881 637.446 132.608 628.334 132.608C619.222 132.608 612.859 139.881 612.859 150.294L612.859 163.558Z" fill="white"/>
<path d="M628.336 190.64C630.777 190.64 632.757 188.66 632.757 186.218C632.757 183.776 630.777 181.797 628.336 181.797C625.894 181.797 623.914 183.776 623.914 186.218C623.914 188.66 625.894 190.64 628.336 190.64Z" fill="white"/>
<path d="M597.32 347.15H278.68C277.116 347.148 275.616 346.525 274.51 345.419C273.403 344.313 272.781 342.813 272.779 341.249V262.208C272.781 260.643 273.403 259.144 274.51 258.037C275.616 256.931 277.116 256.309 278.68 256.307H597.32C598.884 256.309 600.384 256.931 601.49 258.037C602.596 259.144 603.219 260.643 603.221 262.208V341.249C603.219 342.813 602.596 344.313 601.49 345.419C600.384 346.525 598.884 347.148 597.32 347.15ZM278.68 258.667C277.741 258.668 276.841 259.042 276.178 259.706C275.514 260.369 275.141 261.269 275.14 262.208V341.249C275.141 342.188 275.514 343.087 276.178 343.751C276.841 344.415 277.741 344.788 278.68 344.789H597.32C598.259 344.788 599.158 344.415 599.822 343.751C600.486 343.087 600.859 342.188 600.86 341.249V262.208C600.859 261.269 600.486 260.369 599.822 259.706C599.158 259.042 598.259 258.668 597.32 258.667L278.68 258.667Z" fill="white"/>
<path d="M328.189 322.732C341.464 322.732 352.225 311.971 352.225 298.696C352.225 285.421 341.464 274.659 328.189 274.659C314.914 274.659 304.152 285.421 304.152 298.696C304.152 311.971 314.914 322.732 328.189 322.732Z" fill="white"/>
<path d="M383.704 282.671C383.177 282.67 382.656 282.773 382.169 282.974C381.682 283.175 381.24 283.47 380.867 283.842C380.494 284.214 380.199 284.656 379.997 285.142C379.795 285.629 379.691 286.15 379.691 286.677C379.691 287.204 379.795 287.725 379.997 288.211C380.199 288.698 380.494 289.14 380.867 289.512C381.24 289.884 381.682 290.179 382.169 290.38C382.656 290.581 383.177 290.684 383.704 290.683H572.562C573.624 290.683 574.643 290.261 575.394 289.51C576.146 288.758 576.568 287.739 576.568 286.677C576.568 285.614 576.146 284.596 575.394 283.844C574.643 283.093 573.624 282.671 572.562 282.671H383.704Z" fill="white"/>
<path d="M383.703 306.708C382.641 306.708 381.622 307.13 380.871 307.881C380.119 308.632 379.697 309.651 379.697 310.714C379.697 311.776 380.119 312.795 380.871 313.546C381.622 314.298 382.641 314.72 383.703 314.72H464.969C466.032 314.72 467.051 314.298 467.802 313.546C468.553 312.795 468.975 311.776 468.975 310.714C468.975 309.651 468.553 308.632 467.802 307.881C467.051 307.13 466.032 306.708 464.969 306.708H383.703Z" fill="white"/>
<path d="M104.922 414.403L113.939 331.649L128.217 273.511L101.626 265.277L87.6085 330.703L92.2421 411.206C89.7923 412.043 87.6786 413.649 86.2162 415.785C84.7538 417.921 84.0211 420.472 84.1273 423.059C84.2335 425.645 85.1731 428.128 86.8057 430.137C88.4384 432.146 90.6767 433.573 93.1868 434.206C95.6969 434.839 98.3443 434.643 100.734 433.648C103.124 432.654 105.128 430.913 106.448 428.686C107.768 426.459 108.332 423.865 108.057 421.291C107.782 418.717 106.683 416.301 104.922 414.403Z" fill="#AD6A48"/>
<path d="M82.5956 423.519C84.4612 396.079 97.6368 369.62 120.901 344.035L183.147 347.866L184.105 395.748L233.902 660.056L216.665 661.013L135.266 489.596L96.9601 660.056L79.7227 661.013L82.5956 423.519Z" fill="#212529"/>
<path d="M145.8 231.822C162.196 231.822 175.487 218.531 175.487 202.135C175.487 185.74 162.196 172.449 145.8 172.449C129.404 172.449 116.113 185.74 116.113 202.135C116.113 218.531 129.404 231.822 145.8 231.822Z" fill="#AD6A48"/>
<path d="M109.253 322.08C99.8231 303.867 96.1079 283.232 98.5926 262.874C99.1917 258.026 101.157 253.449 104.259 249.677C107.362 245.905 111.473 243.092 116.113 241.568L150.588 242.526L175.487 270.297C187.407 284.879 194.842 299.906 188.894 316.264L183.148 352.654L118.986 348.824L109.253 322.08Z" fill="#7371FC"/>
<path d="M67.4654 282.342C81.3605 276.343 81.6179 263.863 76.231 248.702C69.0944 234.38 74.2859 220.874 86.8733 207.858C93.448 202.083 95.9089 195.196 94.9921 187.395C94.5304 183.919 94.8782 180.383 96.0084 177.064C97.1386 173.744 99.0206 170.731 101.507 168.259C106.413 163.541 129.26 160.619 136.409 160.359L145.754 160.019C146.229 160.001 146.703 159.996 147.178 160.003C150.9 160.054 154.575 160.839 157.994 162.311C161.412 163.783 164.507 165.914 167.103 168.582C169.698 171.25 171.742 174.403 173.118 177.862C174.495 181.32 175.177 185.015 175.125 188.737C160.167 185.119 158.344 189.392 150.154 198.959C144.228 206.136 141.237 215.29 141.782 224.583C142.301 237.15 133.708 257.465 126.001 277.027C135.089 292.774 123.836 305.353 110.887 316.573H110.2C92.3025 316.573 62.9527 299.661 67.4654 282.342Z" fill="#212529"/>
<path d="M145.323 215.064C147.438 215.064 149.153 211.848 149.153 207.881C149.153 203.915 147.438 200.699 145.323 200.699C143.207 200.699 141.492 203.915 141.492 207.881C141.492 211.848 143.207 215.064 145.323 215.064Z" fill="#AD6A48"/>
<path d="M201.725 428.299L180.276 347.866L172.615 288.492L144.844 290.408L155.377 356.484L188.745 429.893C186.762 431.557 185.37 433.817 184.777 436.337C184.184 438.857 184.421 441.501 185.454 443.875C186.486 446.249 188.258 448.225 190.505 449.51C192.753 450.794 195.355 451.318 197.925 451.002C200.494 450.687 202.893 449.549 204.763 447.759C206.633 445.969 207.874 443.622 208.301 441.069C208.728 438.516 208.319 435.893 207.134 433.592C205.949 431.29 204.051 429.434 201.725 428.299V428.299Z" fill="#AD6A48"/>
<path d="M134.659 262.65C134.652 262.227 134.659 261.804 134.679 261.381C134.802 258.787 135.435 256.243 136.542 253.894C137.648 251.545 139.207 249.437 141.128 247.691C143.049 245.944 145.296 244.593 147.739 243.715C150.183 242.836 152.775 242.448 155.369 242.571C160.503 242.816 165.34 245.05 168.855 248.8C172.37 252.551 174.286 257.523 174.198 262.662L177.401 299.026C165.67 290.172 153.855 290.89 141.968 299.984L134.659 262.65Z" fill="#7371FC"/>
<path d="M215.289 658.93L239.433 658.929H239.434C243.515 658.929 247.428 660.55 250.314 663.435C253.199 666.321 254.82 670.234 254.821 674.315V674.815L215.29 674.816L215.289 658.93Z" fill="white"/>
<path d="M79.2891 658.93L103.433 658.929H103.434C107.515 658.929 111.428 660.55 114.314 663.435C117.199 666.321 118.82 670.234 118.821 674.315V674.815L79.2898 674.816L79.2891 658.93Z" fill="white"/>
<path d="M421 677H40C39.7348 677 39.4804 676.895 39.2929 676.707C39.1054 676.52 39 676.265 39 676C39 675.735 39.1054 675.48 39.2929 675.293C39.4804 675.105 39.7348 675 40 675H421C421.265 675 421.52 675.105 421.707 675.293C421.895 675.48 422 675.735 422 676C422 676.265 421.895 676.52 421.707 676.707C421.52 676.895 421.265 677 421 677Z" fill="#ADB5BD"/>
<path d="M835.716 135.554C831.616 123.777 824.997 113.035 816.32 104.079C807.642 95.123 797.116 88.1674 785.474 83.6975C773.832 79.2275 761.356 77.3508 748.914 78.1982C736.473 79.0456 724.366 82.5967 713.438 88.6039C702.51 94.6111 693.023 102.93 685.641 112.98C678.258 123.03 673.156 134.57 670.691 146.794C668.227 159.018 668.458 171.633 671.37 183.759C674.281 195.884 679.803 207.229 687.549 217.002C688.319 217.971 689.119 218.941 689.934 219.88C689.996 219.941 690.042 220.003 690.103 220.064C692.11 222.376 694.242 224.575 696.491 226.652C697.076 227.19 697.691 227.744 698.307 228.268C699.477 229.314 700.677 230.315 701.924 231.269C704.358 233.187 706.896 234.97 709.527 236.609L709.619 236.656C711.327 237.718 713.066 238.703 714.837 239.641L715.56 240.011C717.222 240.873 718.915 241.688 720.654 242.442C721.008 242.596 721.393 242.75 721.747 242.904C721.778 242.92 721.793 242.92 721.824 242.935C725.338 244.396 728.948 245.615 732.629 246.583C739.843 248.506 747.278 249.478 754.744 249.476C757.469 249.476 760.162 249.353 762.825 249.091C768.908 248.53 774.914 247.317 780.74 245.475C780.755 245.475 780.77 245.459 780.785 245.459C784.465 244.287 788.06 242.862 791.544 241.196C791.559 241.181 791.591 241.181 791.606 241.165C792.39 240.796 793.145 240.396 793.914 240.011C794.037 239.949 794.161 239.888 794.284 239.826C794.899 239.503 795.515 239.18 796.13 238.841C797.669 237.995 799.178 237.102 800.671 236.148C801.087 235.901 801.486 235.64 801.902 235.363C803.256 234.47 804.595 233.516 805.888 232.546C806.119 232.377 806.365 232.208 806.597 232.023C821.015 221.078 831.598 205.849 836.829 188.519C842.061 171.19 841.671 152.649 835.716 135.554H835.716Z" fill="url(#paint1_linear)"/>
<path d="M783.039 199.078C790.136 199.078 795.889 193.325 795.889 186.229C795.889 179.132 790.136 173.379 783.039 173.379C775.942 173.379 770.189 179.132 770.189 186.229C770.189 193.325 775.942 199.078 783.039 199.078Z" fill="#212529"/>
<path d="M786.618 173.733C788.842 173.733 791.028 174.31 792.962 175.408C794.896 176.506 796.512 178.087 797.652 179.997C798.792 181.906 799.417 184.079 799.466 186.303C799.514 188.526 798.985 190.724 797.93 192.682C799.044 191.288 799.855 189.677 800.312 187.953C800.769 186.228 800.861 184.427 800.584 182.665C800.306 180.902 799.665 179.217 798.7 177.716C797.735 176.215 796.469 174.932 794.98 173.947C793.492 172.963 791.815 172.3 790.057 171.999C788.298 171.699 786.496 171.768 784.765 172.203C783.035 172.637 781.414 173.427 780.006 174.523C778.597 175.618 777.433 176.995 776.586 178.566C777.787 177.057 779.313 175.839 781.05 175.003C782.787 174.166 784.691 173.732 786.619 173.733H786.618Z" fill="#212529"/>
<path d="M759.027 186.201C779.874 186.201 796.774 169.301 796.774 148.453C796.774 127.606 779.874 110.706 759.027 110.706C738.179 110.706 721.279 127.606 721.279 148.453C721.279 169.301 738.179 186.201 759.027 186.201Z" fill="#212529"/>
<path d="M729.4 125.033C735.904 117.718 744.996 113.217 754.756 112.478C764.517 111.74 774.182 114.822 781.713 121.075C781.405 120.781 781.097 120.485 780.779 120.201C773.321 113.528 763.519 110.091 753.527 110.643C743.536 111.195 734.172 115.692 727.495 123.146C720.818 130.599 717.374 140.399 717.919 150.391C718.465 160.383 722.956 169.749 730.405 176.431C730.476 176.495 730.548 176.559 730.62 176.623C730.94 176.908 731.27 177.177 731.598 177.449C724.506 170.703 720.313 161.465 719.903 151.685C719.493 141.906 722.899 132.349 729.401 125.033L729.4 125.033Z" fill="#212529"/>
<path d="M758.706 185.881C772.132 185.881 783.017 174.996 783.017 161.57C783.017 148.143 772.132 137.258 758.706 137.258C745.279 137.258 734.395 148.143 734.395 161.57C734.395 174.996 745.279 185.881 758.706 185.881Z" fill="#AD6A48"/>
<path d="M802.21 224.913V233.07C800.717 234.024 799.209 234.917 797.67 235.763C797.054 236.102 796.439 236.425 795.823 236.748C795.7 236.81 795.577 236.871 795.453 236.933C794.684 237.317 793.929 237.718 793.145 238.087C793.13 238.102 793.098 238.102 793.083 238.118C789.599 239.784 786.005 241.209 782.325 242.381C782.31 242.381 782.295 242.396 782.279 242.396C776.454 244.239 770.448 245.452 764.364 246.013C761.701 246.275 759.008 246.398 756.284 246.398C748.817 246.4 741.382 245.427 734.168 243.504C730.487 242.537 726.877 241.318 723.363 239.857C723.333 239.842 723.317 239.842 723.286 239.826C722.932 239.672 722.547 239.518 722.193 239.364C720.454 238.61 718.761 237.795 717.099 236.933L716.376 236.563C714.605 235.624 712.866 234.64 711.158 233.578L711.066 233.531C708.435 231.892 705.897 230.109 703.463 228.191C702.216 227.237 701.016 226.236 699.846 225.19C699.23 224.666 698.615 224.112 698.03 223.574C695.782 221.497 693.649 219.298 691.643 216.986C691.909 215.383 692.3 213.803 692.813 212.261L692.828 212.246C692.92 211.983 693.028 211.726 693.151 211.476C693.236 211.255 693.333 211.04 693.443 210.83C696.198 205.674 701.185 204.397 707.372 204.12C710.866 203.966 714.729 204.135 718.808 204.089C720.962 204.073 723.194 203.996 725.426 203.796C739.508 202.519 736.954 194.208 737.584 189.729C738.215 185.389 742.125 189.144 742.386 189.391L742.401 189.406C750.37 193.136 759.187 194.681 767.95 193.885C769.458 193.7 770.966 193.592 772.475 193.546C776.446 193.5 775.584 194.639 774.214 195.578C773.55 196.015 772.855 196.406 772.137 196.747C772.137 196.747 771.505 200.595 770.859 206.351C770.244 211.861 789.651 213.77 793.453 214.97H793.468C795.638 215.768 797.574 217.095 799.101 218.832C800.628 220.568 801.696 222.658 802.21 224.913Z" fill="#7371FC"/>
<path d="M737.914 131.181V155.498H743.544L750.708 147.821L749.75 155.498H774.636L773.097 147.821L776.176 155.498H780.143V131.181H737.914Z" fill="#212529"/>
<path d="M734.075 159.97C735.135 159.97 735.995 158.395 735.995 156.452C735.995 154.509 735.135 152.934 734.075 152.934C733.016 152.934 732.156 154.509 732.156 156.452C732.156 158.395 733.016 159.97 734.075 159.97Z" fill="#AD6A48"/>
<path d="M783.339 159.97C784.399 159.97 785.258 158.395 785.258 156.452C785.258 154.509 784.399 152.934 783.339 152.934C782.279 152.934 781.42 154.509 781.42 156.452C781.42 158.395 782.279 159.97 783.339 159.97Z" fill="#AD6A48"/>
<path d="M835.716 135.554C831.616 123.777 824.997 113.035 816.32 104.079C807.642 95.123 797.116 88.1674 785.474 83.6975C773.832 79.2275 761.356 77.3508 748.914 78.1982C736.473 79.0456 724.366 82.5967 713.438 88.6039C702.51 94.6111 693.023 102.93 685.641 112.98C678.258 123.03 673.156 134.57 670.691 146.794C668.227 159.018 668.458 171.633 671.37 183.759C674.281 195.884 679.803 207.229 687.549 217.002C688.319 217.971 689.119 218.941 689.934 219.88C689.996 219.941 690.042 220.003 690.103 220.064C692.11 222.376 694.242 224.575 696.491 226.652C697.076 227.19 697.691 227.744 698.307 228.268C699.477 229.314 700.677 230.315 701.924 231.269C704.358 233.187 706.896 234.97 709.527 236.609L709.619 236.656C711.327 237.718 713.066 238.703 714.837 239.641L715.56 240.011C717.222 240.873 718.915 241.688 720.654 242.442C721.008 242.596 721.393 242.75 721.747 242.904C721.778 242.92 721.793 242.92 721.824 242.935C725.338 244.396 728.948 245.615 732.629 246.583C739.843 248.506 747.278 249.478 754.744 249.476C757.469 249.476 760.162 249.353 762.825 249.091C768.908 248.53 774.914 247.317 780.74 245.475C780.755 245.475 780.77 245.459 780.785 245.459C784.465 244.287 788.06 242.862 791.544 241.196C791.559 241.181 791.591 241.181 791.606 241.165C792.39 240.796 793.145 240.396 793.914 240.011C794.037 239.949 794.161 239.888 794.284 239.826C794.899 239.503 795.515 239.18 796.13 238.841C797.669 237.995 799.178 237.102 800.671 236.148C801.087 235.901 801.486 235.64 801.902 235.363C803.256 234.47 804.595 233.516 805.888 232.546C806.119 232.377 806.365 232.208 806.597 232.023C821.015 221.078 831.598 205.849 836.829 188.519C842.061 171.19 841.671 152.649 835.716 135.554H835.716ZM803.764 228.283C803.256 228.683 802.733 229.068 802.21 229.422C801.702 229.807 801.194 230.176 800.671 230.515C800.225 230.838 799.778 231.146 799.316 231.438C798.931 231.7 798.546 231.946 798.162 232.192C796.885 232.993 795.592 233.762 794.284 234.501C794.145 234.578 794.007 234.655 793.868 234.732C793.283 235.055 792.698 235.363 792.114 235.671C792.036 235.717 791.944 235.748 791.867 235.794L791.775 235.84C791.036 236.225 790.282 236.594 789.528 236.948C786.617 238.35 783.62 239.563 780.555 240.58C780.155 240.719 779.754 240.857 779.355 240.98C773.841 242.734 768.155 243.89 762.394 244.428C759.87 244.659 757.315 244.782 754.744 244.782C747.682 244.797 740.649 243.875 733.829 242.042C730.328 241.129 726.898 239.966 723.563 238.564C723.209 238.426 722.855 238.272 722.516 238.133C722.332 238.056 722.162 237.979 721.977 237.887C720.531 237.256 719.1 236.563 717.699 235.84L717.022 235.486C715.314 234.593 713.636 233.639 712.004 232.623C711.405 232.254 710.804 231.869 710.219 231.469C708.372 230.253 706.572 228.945 704.817 227.575C703.632 226.682 702.493 225.728 701.385 224.743C700.8 224.251 700.231 223.712 699.677 223.204C697.495 221.189 695.429 219.051 693.49 216.802C692.843 216.063 692.212 215.324 691.612 214.554C691.475 214.402 691.347 214.243 691.227 214.077C681.227 201.459 675.212 186.148 673.95 170.097C672.687 154.046 676.234 137.983 684.137 123.955C692.041 109.928 703.943 98.5733 718.327 91.3383C732.71 84.1033 748.922 81.3162 764.896 83.3326C780.87 85.349 795.881 92.0774 808.015 102.66C820.15 113.242 828.857 127.199 833.027 142.75C837.197 158.301 836.64 174.742 831.429 189.976C826.217 205.209 816.586 218.545 803.764 228.283Z" fill="#7371FC"/>
<defs>
<linearGradient id="paint0_linear" x1="440" y1="0" x2="440" y2="755" gradientUnits="userSpaceOnUse">
<stop stop-color="#7371FC"/>
<stop offset="1" stop-color="#E5D9F2"/>
</linearGradient>
<linearGradient id="paint1_linear" x1="754.743" y1="78" x2="754.743" y2="249.476" gradientUnits="userSpaceOnUse">
<stop stop-color="#7371FC"/>
<stop offset="1" stop-color="#E5D9F2"/>
</linearGradient>
</defs>
</svg>
